# xmcd
#
# Track frame offsets:
#	150
#	11550
#	30073
#	41548
#	53698
#	74472
#	87372
#	99447
#	110847
#	123072
#	135372
#	146096
#	162221
#	179631
#	199996
#	209923
#	226916
#	242516
#	260485
#	281240
#
# Disc length: 4003 seconds
#
# Revision: 1
# Processed by: cddbd v1.4PL0 Copyright (c) Steve Scherf et al.
# Submitted via: EasyCDDAExtractor 5.0.7
#
DISCID=1f0fa114
DTITLE=Various Artist - Line Dance Collection 5
DYEAR=2000
DGENRE=country
TTITLE0=Sold
TTITLE1=Live, Laugh, Love
TTITLE2=Timber, I'm Falling In Love
TTITLE3=Blue Finder Lou
TTITLE4=Beyond The Blue
TTITLE5=Wrong Night
TTITLE6=Then She Kissed Me
TTITLE7=Cherokee Boogie
TTITLE8=Eatin' Right And Drinkin' Bad
TTITLE9=Horse To Mexico
TTITLE10=CrazyLittle Thing Called Love
TTITLE11=Once Upon A December
TTITLE12=Tell Me Ma
TTITLE13=Siamsa
TTITLE14=Gypsy
TTITLE15=Dueling Violins
TTITLE16=Breatheless
TTITLE17=Chilly Cha Cha
TTITLE18=Grove With Me Tonight
TTITLE19=Red Hot Salsa
EXTD=
EXTT0=
EXTT1=
EXTT2=
EXTT3=
EXTT4=
EXTT5=
EXTT6=
EXTT7=
EXTT8=
EXTT9=
EXTT10=
EXTT11=
EXTT12=
EXTT13=
EXTT14=
EXTT15=
EXTT16=
EXTT17=
EXTT18=
EXTT19=
PLAYORDER=
